<?xml version="1.0" encoding="UTF-8" standalone="no"?>
<!-- Created with Inkscape (http://www.inkscape.org/) -->

<svg
   width="180"
   height="180"
   viewBox="0 0 180 180"
   version="1.1"
   id="svg1"
   inkscape:version="1.3 (0e150ed, 2023-07-21)"
   sodipodi:docname="station.svg"
   xmlns:inkscape="http://www.inkscape.org/namespaces/inkscape"
   xmlns:sodipodi="http://sodipodi.sourceforge.net/DTD/sodipodi-0.dtd"
   xmlns="http://www.w3.org/2000/svg"
   xmlns:svg="http://www.w3.org/2000/svg">
  <sodipodi:namedview
     id="namedview1"
     pagecolor="#505050"
     bordercolor="#ffffff"
     borderopacity="1"
     inkscape:showpageshadow="0"
     inkscape:pageopacity="0"
     inkscape:pagecheckerboard="1"
     inkscape:deskcolor="#505050"
     inkscape:document-units="px"
     inkscape:zoom="0.70710678"
     inkscape:cx="71.417785"
     inkscape:cy="129.40054"
     inkscape:window-width="1920"
     inkscape:window-height="1013"
     inkscape:window-x="0"
     inkscape:window-y="514"
     inkscape:window-maximized="1"
     inkscape:current-layer="layer4">
    <inkscape:page
       x="0"
       y="0"
       width="180"
       height="180"
       id="page15"
       margin="0"
       bleed="0"
       inkscape:label="Level1" />
    <inkscape:page
       x="180"
       y="0"
       width="180"
       height="180"
       id="page16"
       margin="0"
       bleed="0"
       inkscape:label="Level2" />
    <inkscape:page
       x="360"
       y="0"
       width="180"
       height="180"
       id="page17"
       inkscape:label="Level3"
       margin="0"
       bleed="0" />
    <inkscape:page
       x="540"
       y="0"
       width="180"
       height="180"
       id="page18"
       margin="0"
       bleed="0"
       inkscape:label="Level 4" />
    <inkscape:page
       x="0"
       y="180"
       width="360"
       height="360"
       id="page30"
       margin="0"
       bleed="0"
       inkscape:label="Level 5" />
    <inkscape:page
       x="360"
       y="180"
       width="360"
       height="360"
       id="page33"
       margin="0"
       bleed="0"
       inkscape:label="Level 6" />
  </sodipodi:namedview>
  <defs
     id="defs1">
    <inkscape:path-effect
       effect="fillet_chamfer"
       id="path-effect13"
       is_visible="true"
       lpeversion="1"
       nodesatellites_param="F,0,0,1,0,0,0,1 @ F,0,0,1,0,0,0,1 @ F,0,0,1,0,0,0,1 @ F,0,0,1,0,0,0,1"
       radius="0"
       unit="px"
       method="auto"
       mode="F"
       chamfer_steps="1"
       flexible="false"
       use_knot_distance="true"
       apply_no_radius="true"
       apply_with_radius="true"
       only_selected="false"
       hide_knots="false" />
    <inkscape:path-effect
       effect="fillet_chamfer"
       id="path-effect11"
       is_visible="true"
       lpeversion="1"
       nodesatellites_param="F,0,0,1,0,0,0,1 @ F,0,0,1,0,0,0,1 @ F,0,0,1,0,0,0,1 @ F,0,0,1,0,0,0,1"
       radius="0"
       unit="px"
       method="auto"
       mode="F"
       chamfer_steps="1"
       flexible="false"
       use_knot_distance="true"
       apply_no_radius="true"
       apply_with_radius="true"
       only_selected="false"
       hide_knots="false" />
  </defs>
  <g
     inkscape:label="Layer 1"
     inkscape:groupmode="layer"
     id="layer1"
     transform="translate(150.25208,0.67776493)">
    <g
       inkscape:groupmode="layer"
       id="layer2"
       inkscape:label="Level 1">
      <path
         style="color:#000000;fill:#00ffff;stroke-linejoin:round;-inkscape-stroke:none"
         d="m -77.632945,64.322235 c -4.16453,0 -7.61914,3.45461 -7.61914,7.61914 v 34.761715 c 0,4.16454 3.45461,7.61915 7.61914,7.61915 h 34.76173 c 4.16453,0 7.61914,-3.45461 7.61914,-7.61915 V 71.941375 c 0,-4.16453 -3.45461,-7.61914 -7.61914,-7.61914 z m 0,6.54883 h 34.76173 c 0.64988,0 1.07031,0.42043 1.07031,1.07031 v 34.761715 c 0,0.64988 -0.42043,1.07031 -1.07031,1.07031 h -34.76173 c -0.64987,0 -1.07031,-0.42043 -1.07031,-1.07031 V 71.941375 c 0,-0.64988 0.42044,-1.07031 1.07031,-1.07031 z"
         id="rect1" />
    </g>
    <g
       inkscape:groupmode="layer"
       id="layer3"
       inkscape:label="Level 2">
      <path
         id="rect1-5"
         style="color:#000000;fill:#00ffff;stroke-linejoin:round;-inkscape-stroke:none"
         d="m 102.36706,64.32221 c -4.164528,0 -7.619138,3.45461 -7.619138,7.61914 v 4.11914 c -0.0758,-0.003 -0.15021,-0.0117 -0.22656,-0.0117 h -28 c -3.69632,0 -6.77344,3.07712 -6.77344,6.77344 v 13 c 0,3.69632 3.07712,6.77344 6.77344,6.77344 h 28 c 0.0763,0 0.15076,-0.009 0.22656,-0.0117 v 4.11914 c 0,4.16453 3.45461,7.61915 7.619138,7.61915 h 34.76172 c 4.16453,0 7.61914,-3.45462 7.61914,-7.61915 v -4.11914 c 0.076,0.003 0.15,0.0117 0.22656,0.0117 h 28 c 3.69633,0 6.77344,-3.07712 6.77344,-6.77344 v -13 c 0,-3.69632 -3.07711,-6.77344 -6.77344,-6.77344 h -28 c -0.0766,0 -0.15054,0.009 -0.22656,0.0117 v -4.11914 c 0,-4.16453 -3.45461,-7.61914 -7.61914,-7.61914 z m 0,6.54883 h 34.76172 c 0.64988,0 1.07031,0.42043 1.07031,1.07031 v 10.88086 13 10.88086 c 0,0.64988 -0.42043,1.07032 -1.07031,1.07032 h -34.76172 c -0.64988,0 -1.07031,-0.42044 -1.07031,-1.07032 V 71.94135 c 0,-0.64988 0.42043,-1.07031 1.07031,-1.07031 z M 66.521362,82.59565 h 28 c 0.18167,0 0.22656,0.0449 0.22656,0.22656 v 13 c 0,0.18168 -0.0449,0.22656 -0.22656,0.22656 h -28 c -0.18167,0 -0.22461,-0.0449 -0.22461,-0.22656 v -13 c 0,-0.18167 0.0429,-0.22656 0.22461,-0.22656 z m 78.453118,0 h 28 c 0.18167,0 0.22461,0.0449 0.22461,0.22656 v 13 c 0,0.18168 -0.0429,0.22656 -0.22461,0.22656 h -28 c -0.18167,0 -0.22656,-0.0449 -0.22656,-0.22656 v -13 c 0,-0.18167 0.0449,-0.22656 0.22656,-0.22656 z" />
    </g>
    <g
       inkscape:groupmode="layer"
       id="layer4"
       inkscape:label="Level 3">
      <path
         id="rect1-5-1"
         style="color:#000000;fill:#00ffff;stroke-linejoin:round;-inkscape-stroke:none"
         d="m 293.24791,29.32221 c -3.69631,1e-5 -6.77345,3.07713 -6.77344,6.77344 v 28 c 0,0.0763 0.009,0.15076 0.0117,0.22656 h -4.11914 c -4.16453,0 -7.61914,3.45462 -7.61914,7.61915 v 4.11914 c -0.0758,-0.003 -0.15021,-0.0117 -0.22656,-0.0117 h -28 c -3.69632,0 -6.77344,3.07711 -6.77344,6.77343 v 13 c 0,3.69632 3.07712,6.77344 6.77344,6.77344 h 28 c 0.0763,0 0.15076,-0.009 0.22656,-0.0117 v 4.11914 c 0,4.16453 3.45461,7.61915 7.61914,7.61915 h 4.11914 c -0.003,0.0758 -0.0117,0.15021 -0.0117,0.22656 v 28 c 0,3.69632 3.07713,6.77344 6.77344,6.77344 h 13 c 3.69633,0 6.77345,-3.07712 6.77344,-6.77344 v -28 c 0,-0.0763 -0.009,-0.15076 -0.0117,-0.22656 h 4.11914 c 4.16453,0 7.61914,-3.45462 7.61914,-7.61915 v -4.11914 c 0.0758,0.003 0.15021,0.0117 0.22656,0.0117 h 28 c 3.69633,0 6.77344,-3.07712 6.77344,-6.77344 v -13 c 0,-3.69632 -3.07711,-6.77343 -6.77344,-6.77343 h -28 c -0.0763,0 -0.15076,0.009 -0.22656,0.0117 v -4.11914 c 0,-4.16453 -3.45461,-7.61915 -7.61914,-7.61915 h -4.11914 c 0.003,-0.0758 0.0117,-0.15021 0.0117,-0.22656 v -28 c 0,-3.69631 -3.07712,-6.77344 -6.77344,-6.77344 z m 0,6.54883 h 13 c 0.18167,0 0.22656,0.0429 0.22656,0.22461 v 28 c 0,0.18167 -0.0449,0.22656 -0.22656,0.22656 h -13 c -0.18168,0 -0.22656,-0.0449 -0.22656,-0.22656 v -28 c 0,-0.18167 0.0449,-0.22461 0.22656,-0.22461 z m -10.88086,35 h 34.76172 c 0.64988,0 1.07031,0.42044 1.07031,1.07032 v 10.88085 13 10.88086 c 0,0.64988 -0.42043,1.07032 -1.07031,1.07032 h -34.76172 c -0.64988,0 -1.07031,-0.42044 -1.07031,-1.07032 V 71.94136 c 0,-0.64988 0.42043,-1.07032 1.07031,-1.07032 z m -35.8457,11.72461 h 28 c 0.18167,0 0.22656,0.0449 0.22656,0.22656 v 13 c 0,0.18168 -0.0449,0.22657 -0.22656,0.22657 h -28 c -0.18167,0 -0.22461,-0.0449 -0.22461,-0.22657 v -13 c 0,-0.18167 0.0429,-0.22656 0.22461,-0.22656 z m 78.45312,0 h 28 c 0.18167,0 0.22461,0.0449 0.22461,0.22656 v 13 c 0,0.18168 -0.0429,0.22657 -0.22461,0.22657 h -28 c -0.18167,0 -0.22656,-0.0449 -0.22656,-0.22657 v -13 c 0,-0.18167 0.0449,-0.22656 0.22656,-0.22656 z m -31.72656,31.72657 h 13 c 0.18167,0 0.22656,0.0449 0.22656,0.22656 v 28 c 0,0.18167 -0.0449,0.22461 -0.22656,0.22461 h -13 c -0.18168,0 -0.22656,-0.0429 -0.22656,-0.22461 v -28 c 0,-0.18167 0.0449,-0.22656 0.22656,-0.22656 z" />
    </g>
    <g
       inkscape:groupmode="layer"
       id="layer5"
       inkscape:label="Level 4">
      <path
         id="path20"
         style="color:#000000;fill:#00ffff;stroke-linejoin:round;-inkscape-stroke:none"
         d="m 473.24792,29.32221 c -3.69631,1e-5 -6.77345,3.07713 -6.77344,6.77344 v 28 c 0,0.0763 0.009,0.15076 0.0117,0.22656 h -4.11914 c -4.16453,0 -7.61914,3.45462 -7.61914,7.61915 v 4.11914 c -0.0758,-0.003 -0.15021,-0.0117 -0.22656,-0.0117 h -28 c -3.69632,0 -6.77344,3.07711 -6.77344,6.77343 v 13 c 0,3.69632 3.07712,6.77344 6.77344,6.77344 h 28 c 0.0763,0 0.15076,-0.009 0.22656,-0.0117 v 4.11914 c 0,4.16453 3.45461,7.61915 7.61914,7.61915 h 4.11914 c -0.003,0.0758 -0.0117,0.15021 -0.0117,0.22656 v 28 c 0,3.69632 3.07713,6.77344 6.77344,6.77344 h 13 c 3.69633,0 6.77345,-3.07712 6.77344,-6.77344 v -28 c 0,-0.0763 -0.009,-0.15076 -0.0117,-0.22656 h 4.11914 c 4.16453,0 7.61914,-3.45462 7.61914,-7.61915 v -4.11914 c 0.0758,0.003 0.15021,0.0117 0.22656,0.0117 h 28 c 3.69633,0 6.77344,-3.07712 6.77344,-6.77344 v -13 c 0,-3.69632 -3.07711,-6.77343 -6.77344,-6.77343 h -28 c -0.0763,0 -0.15076,0.009 -0.22656,0.0117 v -4.11914 c 0,-4.16453 -3.45461,-7.61915 -7.61914,-7.61915 h -4.11914 c 0.003,-0.0758 0.0117,-0.15021 0.0117,-0.22656 v -28 c 0,-3.69631 -3.07712,-6.77344 -6.77344,-6.77344 z m 0,6.54883 h 13 c 0.18167,0 0.22656,0.0429 0.22656,0.22461 v 28 c 0,0.18167 -0.0449,0.22656 -0.22656,0.22656 h -13 c -0.18168,0 -0.22656,-0.0449 -0.22656,-0.22656 v -28 c 0,-0.18167 0.0449,-0.22461 0.22656,-0.22461 z m -10.88086,35 h 34.76172 c 0.64988,0 1.07031,0.42044 1.07031,1.07032 v 10.88085 13 10.88086 c 0,0.64988 -0.42043,1.07032 -1.07031,1.07032 h -34.76172 c -0.64988,0 -1.07031,-0.42044 -1.07031,-1.07032 V 71.94136 c 0,-0.64988 0.42043,-1.07032 1.07031,-1.07032 z m -35.8457,11.72461 h 28 c 0.18167,0 0.22656,0.0449 0.22656,0.22656 v 13 c 0,0.18168 -0.0449,0.22657 -0.22656,0.22657 h -28 c -0.18167,0 -0.22461,-0.0449 -0.22461,-0.22657 v -13 c 0,-0.18167 0.0429,-0.22656 0.22461,-0.22656 z m 78.45312,0 h 28 c 0.18167,0 0.22461,0.0449 0.22461,0.22656 v 13 c 0,0.18168 -0.0429,0.22657 -0.22461,0.22657 h -28 c -0.18167,0 -0.22656,-0.0449 -0.22656,-0.22657 v -13 c 0,-0.18167 0.0449,-0.22656 0.22656,-0.22656 z m -31.72656,31.72657 h 13 c 0.18167,0 0.22656,0.0449 0.22656,0.22656 v 28 c 0,0.18167 -0.0449,0.22461 -0.22656,0.22461 h -13 c -0.18168,0 -0.22656,-0.0429 -0.22656,-0.22461 v -28 c 0,-0.18167 0.0449,-0.22656 0.22656,-0.22656 z" />
      <path
         style="color:#000000;fill:#00ffff;stroke-linejoin:round;-inkscape-stroke:none"
         d="m 479.74805,28.822266 c -33.37174,0 -60.5,27.128262 -60.5,60.5 0,33.371734 27.12826,60.500004 60.5,60.500004 33.37173,0 60.5,-27.12827 60.5,-60.500004 0,-33.371738 -27.12827,-60.5 -60.5,-60.5 z m 0,7 c 29.58866,0 53.5,23.911339 53.5,53.5 0,29.588664 -23.91134,53.500004 -53.5,53.500004 -29.58866,0 -53.5,-23.91134 -53.5,-53.500004 0,-29.588661 23.91134,-53.5 53.5,-53.5 z"
         id="path21" />
      <circle
         style="fill:none;stroke:#00ffff;stroke-width:7;stroke-linejoin:round;stroke-dasharray:none;paint-order:normal"
         id="circle21"
         cx="479.74792"
         cy="89.322212"
         r="85" />
    </g>
    <g
       inkscape:groupmode="layer"
       id="layer6"
       inkscape:label="Level 5">
      <path
         id="path20-1"
         style="color:#000000;fill:#00ffff;stroke-linejoin:round;-inkscape-stroke:none"
         d="m 23.24779,299.32218 c -3.69631,10e-6 -6.77345,3.07713 -6.77344,6.77344 v 28 c 0,0.0763 0.009,0.15076 0.0117,0.22656 h -4.11914 c -4.16453,0 -7.61914,3.45462 -7.61914,7.61915 v 4.11914 c -0.0758,-0.003 -0.15021,-0.0117 -0.22656,-0.0117 h -28 c -3.69632,0 -6.77344,3.07711 -6.77344,6.77343 v 13 c 0,3.69632 3.07712,6.77344 6.77344,6.77344 h 28 c 0.0763,0 0.15076,-0.009 0.22656,-0.0117 v 4.11914 c 0,4.16453 3.45461,7.61915 7.61914,7.61915 h 4.11914 c -0.003,0.0758 -0.0117,0.15021 -0.0117,0.22656 v 28 c 0,3.69632 3.07713,6.77344 6.77344,6.77344 h 13 c 3.69633,0 6.77345,-3.07712 6.77344,-6.77344 v -28 c 0,-0.0763 -0.009,-0.15076 -0.0117,-0.22656 h 4.11914 c 4.16453,0 7.61914,-3.45462 7.61914,-7.61915 v -4.11914 c 0.0758,0.003 0.15021,0.0117 0.22656,0.0117 h 28 c 3.69633,0 6.77344,-3.07712 6.77344,-6.77344 v -13 c 0,-3.69632 -3.07711,-6.77343 -6.77344,-6.77343 h -28 c -0.0763,0 -0.15076,0.009 -0.22656,0.0117 v -4.11914 c 0,-4.16453 -3.45461,-7.61915 -7.61914,-7.61915 h -4.11914 c 0.003,-0.0758 0.0117,-0.15021 0.0117,-0.22656 v -28 c 0,-3.69631 -3.07712,-6.77344 -6.77344,-6.77344 z m 0,6.54883 h 13 c 0.18167,0 0.22656,0.0429 0.22656,0.22461 v 28 c 0,0.18167 -0.0449,0.22656 -0.22656,0.22656 h -13 c -0.18168,0 -0.22656,-0.0449 -0.22656,-0.22656 v -28 c 0,-0.18167 0.0449,-0.22461 0.22656,-0.22461 z m -10.88086,35 h 34.76172 c 0.64988,0 1.07031,0.42044 1.07031,1.07032 v 10.88085 13 10.88086 c 0,0.64988 -0.42043,1.07032 -1.07031,1.07032 H 12.36693 c -0.64988,0 -1.07031,-0.42044 -1.07031,-1.07032 v -34.76171 c 0,-0.64988 0.42043,-1.07032 1.07031,-1.07032 z m -35.8457,11.72461 h 28 c 0.18167,0 0.22656,0.0449 0.22656,0.22656 v 13 c 0,0.18168 -0.0449,0.22657 -0.22656,0.22657 h -28 c -0.18167,0 -0.22461,-0.0449 -0.22461,-0.22657 v -13 c 0,-0.18167 0.0429,-0.22656 0.22461,-0.22656 z m 78.45312,0 h 28 c 0.18167,0 0.22461,0.0449 0.22461,0.22656 v 13 c 0,0.18168 -0.0429,0.22657 -0.22461,0.22657 h -28 c -0.18167,0 -0.22656,-0.0449 -0.22656,-0.22657 v -13 c 0,-0.18167 0.0449,-0.22656 0.22656,-0.22656 z m -31.72656,31.72657 h 13 c 0.18167,0 0.22656,0.0449 0.22656,0.22656 v 28 c 0,0.18167 -0.0449,0.22461 -0.22656,0.22461 h -13 c -0.18168,0 -0.22656,-0.0429 -0.22656,-0.22461 v -28 c 0,-0.18167 0.0449,-0.22656 0.22656,-0.22656 z" />
      <path
         style="color:#000000;fill:#00ffff;stroke-linejoin:round;-inkscape-stroke:none"
         d="m 29.74792,298.82223 c -33.37174,0 -60.5,27.12827 -60.5,60.5 0,33.37174 27.12826,60.50001 60.5,60.50001 33.37173,0 60.5,-27.12827 60.5,-60.50001 0,-33.37173 -27.12827,-60.5 -60.5,-60.5 z m 0,7 c 29.58866,0 53.5,23.91134 53.5,53.5 0,29.58867 -23.91134,53.50001 -53.5,53.50001 -29.58866,0 -53.5,-23.91134 -53.5,-53.50001 0,-29.58866 23.91134,-53.5 53.5,-53.5 z"
         id="path21-8" />
      <path
         style="color:#000000;fill:#00ffff;stroke-linejoin:round;-inkscape-stroke:none"
         d="m 29.748047,270.82227 c -48.835695,0 -88.5,39.6643 -88.5,88.5 0,48.83569 39.664305,88.5 88.5,88.5 48.835695,0 88.500003,-39.66431 88.500003,-88.5 0,-48.8357 -39.664308,-88.5 -88.500003,-88.5 z m 0,7 c 45.052618,0 81.500003,36.44738 81.500003,81.5 0,45.05261 -36.447385,81.5 -81.500003,81.5 -45.052618,0 -81.5,-36.44739 -81.5,-81.5 0,-45.05262 36.447382,-81.5 81.5,-81.5 z"
         id="circle21-7" />
      <path
         style="color:#000000;fill:#00ffff;stroke-linejoin:round;-inkscape-stroke:none"
         d="m 108.24792,318.32227 a 3.50035,3.50035 0 0 0 -3.5,3.5 v 75 a 3.50035,3.50035 0 0 0 3.5,3.5 h 90 a 3.50035,3.50035 0 0 0 3.5,-3.5 v -75 a 3.50035,3.50035 0 0 0 -3.5,-3.5 z m 3.5,7 h 83 v 68 h -83 z"
         id="rect30" />
      <path
         style="color:#000000;fill:#00ffff;stroke-linejoin:round;-inkscape-stroke:none"
         d="m -138.75208,318.32227 a 3.50035,3.50035 0 0 0 -3.5,3.5 v 75 a 3.50035,3.50035 0 0 0 3.5,3.5 h 89.999997 a 3.50035,3.50035 0 0 0 3.5,-3.5 v -75 a 3.50035,3.50035 0 0 0 -3.5,-3.5 z m 3.5,7 h 82.999997 v 68 h -82.999997 z"
         id="path33" />
    </g>
    <g
       inkscape:groupmode="layer"
       id="g38"
       inkscape:label="Level 5 copy">
      <path
         id="path34"
         style="color:#000000;fill:#00ffff;stroke-linejoin:round;-inkscape-stroke:none"
         d="m 383.24792,299.32221 c -3.69631,1e-5 -6.77345,3.07713 -6.77344,6.77344 v 28 c 0,0.0763 0.009,0.15076 0.0117,0.22656 h -4.11914 c -4.16453,0 -7.61914,3.45462 -7.61914,7.61915 v 4.11914 c -0.0758,-0.003 -0.15021,-0.0117 -0.22656,-0.0117 h -28 c -3.69632,0 -6.77344,3.07711 -6.77344,6.77343 v 13 c 0,3.69632 3.07712,6.77344 6.77344,6.77344 h 28 c 0.0763,0 0.15076,-0.009 0.22656,-0.0117 v 4.11914 c 0,4.16453 3.45461,7.61915 7.61914,7.61915 h 4.11914 c -0.003,0.0758 -0.0117,0.15021 -0.0117,0.22656 v 28 c 0,3.69632 3.07713,6.77344 6.77344,6.77344 h 13 c 3.69633,0 6.77345,-3.07712 6.77344,-6.77344 v -28 c 0,-0.0763 -0.009,-0.15076 -0.0117,-0.22656 h 4.11914 c 4.16453,0 7.61914,-3.45462 7.61914,-7.61915 v -4.11914 c 0.0758,0.003 0.15021,0.0117 0.22656,0.0117 h 28 c 3.69633,0 6.77344,-3.07712 6.77344,-6.77344 v -13 c 0,-3.69632 -3.07711,-6.77343 -6.77344,-6.77343 h -28 c -0.0763,0 -0.15076,0.009 -0.22656,0.0117 v -4.11914 c 0,-4.16453 -3.45461,-7.61915 -7.61914,-7.61915 h -4.11914 c 0.003,-0.0758 0.0117,-0.15021 0.0117,-0.22656 v -28 c 0,-3.69631 -3.07712,-6.77344 -6.77344,-6.77344 z m 0,6.54883 h 13 c 0.18167,0 0.22656,0.0429 0.22656,0.22461 v 28 c 0,0.18167 -0.0449,0.22656 -0.22656,0.22656 h -13 c -0.18168,0 -0.22656,-0.0449 -0.22656,-0.22656 v -28 c 0,-0.18167 0.0449,-0.22461 0.22656,-0.22461 z m -10.88086,35 h 34.76172 c 0.64988,0 1.07031,0.42044 1.07031,1.07032 v 10.88085 13 10.88086 c 0,0.64988 -0.42043,1.07032 -1.07031,1.07032 h -34.76172 c -0.64988,0 -1.07031,-0.42044 -1.07031,-1.07032 v -34.76171 c 0,-0.64988 0.42043,-1.07032 1.07031,-1.07032 z m -35.8457,11.72461 h 28 c 0.18167,0 0.22656,0.0449 0.22656,0.22656 v 13 c 0,0.18168 -0.0449,0.22657 -0.22656,0.22657 h -28 c -0.18167,0 -0.22461,-0.0449 -0.22461,-0.22657 v -13 c 0,-0.18167 0.0429,-0.22656 0.22461,-0.22656 z m 78.45312,0 h 28 c 0.18167,0 0.22461,0.0449 0.22461,0.22656 v 13 c 0,0.18168 -0.0429,0.22657 -0.22461,0.22657 h -28 c -0.18167,0 -0.22656,-0.0449 -0.22656,-0.22657 v -13 c 0,-0.18167 0.0449,-0.22656 0.22656,-0.22656 z m -31.72656,31.72657 h 13 c 0.18167,0 0.22656,0.0449 0.22656,0.22656 v 28 c 0,0.18167 -0.0449,0.22461 -0.22656,0.22461 h -13 c -0.18168,0 -0.22656,-0.0429 -0.22656,-0.22461 v -28 c 0,-0.18167 0.0449,-0.22656 0.22656,-0.22656 z" />
      <path
         style="color:#000000;fill:#00ffff;stroke-linejoin:round;-inkscape-stroke:none"
         d="m 389.74805,298.82226 c -33.37174,0 -60.5,27.12827 -60.5,60.5 0,33.37174 27.12826,60.50001 60.5,60.50001 33.37173,0 60.5,-27.12827 60.5,-60.50001 0,-33.37173 -27.12827,-60.5 -60.5,-60.5 z m 0,7 c 29.58866,0 53.5,23.91134 53.5,53.5 0,29.58867 -23.91134,53.50001 -53.5,53.50001 -29.58866,0 -53.5,-23.91134 -53.5,-53.50001 0,-29.58866 23.91134,-53.5 53.5,-53.5 z"
         id="path35" />
      <path
         style="color:#000000;fill:#00ffff;stroke-linejoin:round;-inkscape-stroke:none"
         d="m 389.74818,270.8223 c -48.8357,0 -88.5,39.6643 -88.5,88.5 0,48.83569 39.6643,88.5 88.5,88.5 48.83569,0 88.5,-39.66431 88.5,-88.5 0,-48.8357 -39.66431,-88.5 -88.5,-88.5 z m 0,7 c 45.05261,0 81.5,36.44738 81.5,81.5 0,45.05261 -36.44739,81.5 -81.5,81.5 -45.05262,0 -81.5,-36.44739 -81.5,-81.5 0,-45.05262 36.44738,-81.5 81.5,-81.5 z"
         id="path36" />
      <path
         style="color:#000000;fill:#00ffff;stroke-linejoin:round;-inkscape-stroke:none"
         d="m 468.24805,318.3223 a 3.50035,3.50035 0 0 0 -3.5,3.5 v 75 a 3.50035,3.50035 0 0 0 3.5,3.5 h 90 a 3.50035,3.50035 0 0 0 3.5,-3.5 v -75 a 3.50035,3.50035 0 0 0 -3.5,-3.5 z m 3.5,7 h 83 v 68 h -83 z"
         id="path37" />
      <path
         style="color:#000000;fill:#00ffff;stroke-linejoin:round;-inkscape-stroke:none"
         d="m 221.24805,318.3223 a 3.50035,3.50035 0 0 0 -3.5,3.5 v 75 a 3.50035,3.50035 0 0 0 3.5,3.5 h 90 a 3.50035,3.50035 0 0 0 3.5,-3.5 v -75 a 3.50035,3.50035 0 0 0 -3.5,-3.5 z m 3.5,7 h 83 v 68 h -83 z"
         id="path38" />
      <path
         style="color:#000000;fill:#00ffff;stroke-linejoin:round;-inkscape-stroke:none"
         d="m 430.74805,437.8223 a 3.50035,3.50035 0 0 0 -3.5,-3.5 h -75 a 3.50035,3.50035 0 0 0 -3.5,3.5 v 90 a 3.50035,3.50035 0 0 0 3.5,3.5 h 75 a 3.50035,3.50035 0 0 0 3.5,-3.5 z m -7,3.5 v 83 h -68 v -83 z"
         id="path39" />
      <path
         style="color:#000000;fill:#00ffff;stroke-linejoin:round;-inkscape-stroke:none"
         d="m 430.74805,190.8223 a 3.50035,3.50035 0 0 0 -3.5,-3.5 h -75 a 3.50035,3.50035 0 0 0 -3.5,3.5 v 90 a 3.50035,3.50035 0 0 0 3.5,3.5 h 75 a 3.50035,3.50035 0 0 0 3.5,-3.5 z m -7,3.5 v 83 h -68 v -83 z"
         id="path40" />
    </g>
  </g>
</svg>
