<?xml version="1.0" encoding="UTF-8" standalone="no"?>
<!-- Created with Inkscape (http://www.inkscape.org/) -->

<svg
   width="768"
   height="512"
   viewBox="0 0 768 512"
   version="1.1"
   id="svg1"
   inkscape:version="1.3 (0e150ed, 2023-07-21)"
   sodipodi:docname="station.svg"
   xmlns:inkscape="http://www.inkscape.org/namespaces/inkscape"
   xmlns:sodipodi="http://sodipodi.sourceforge.net/DTD/sodipodi-0.dtd"
   xmlns="http://www.w3.org/2000/svg"
   xmlns:svg="http://www.w3.org/2000/svg">
  <sodipodi:namedview
     id="namedview1"
     pagecolor="#505050"
     bordercolor="#ffffff"
     borderopacity="1"
     inkscape:showpageshadow="0"
     inkscape:pageopacity="0"
     inkscape:pagecheckerboard="1"
     inkscape:deskcolor="#505050"
     inkscape:document-units="px"
     inkscape:zoom="1.7295054"
     inkscape:cx="357.32758"
     inkscape:cy="299.21849"
     inkscape:window-width="1920"
     inkscape:window-height="1011"
     inkscape:window-x="0"
     inkscape:window-y="0"
     inkscape:window-maximized="1"
     inkscape:current-layer="layer7"
     showgrid="true">
    <inkscape:page
       x="0"
       y="0"
       width="768"
       height="512"
       id="page1"
       margin="0 0 0 0"
       bleed="0"
       inkscape:label="All"
       inkscape:export-filename="All.png"
       inkscape:export-xdpi="96"
       inkscape:export-ydpi="96" />
    <inkscape:grid
       id="grid3"
       units="px"
       originx="-768"
       originy="0"
       spacingx="16"
       spacingy="16"
       empcolor="#00c6f3"
       empopacity="0.5254902"
       color="#00b3ea"
       opacity="0.25098039"
       empspacing="1"
       dotted="false"
       gridanglex="30"
       gridanglez="30"
       visible="true"
       snapvisiblegridlinesonly="false"
       enabled="false" />
    <inkscape:grid
       id="grid4"
       units="px"
       originx="-768"
       originy="0"
       spacingx="64"
       spacingy="64"
       empcolor="#e50000"
       empopacity="0.83529412"
       color="#e50000"
       opacity="0.38823529"
       empspacing="2"
       dotted="false"
       gridanglex="30"
       gridanglez="30"
       visible="true" />
  </sodipodi:namedview>
  <defs
     id="defs1">
    <inkscape:path-effect
       effect="fillet_chamfer"
       id="path-effect13"
       is_visible="true"
       lpeversion="1"
       nodesatellites_param="F,0,0,1,0,0,0,1 @ F,0,0,1,0,0,0,1 @ F,0,0,1,0,0,0,1 @ F,0,0,1,0,0,0,1"
       radius="0"
       unit="px"
       method="auto"
       mode="F"
       chamfer_steps="1"
       flexible="false"
       use_knot_distance="true"
       apply_no_radius="true"
       apply_with_radius="true"
       only_selected="false"
       hide_knots="false" />
    <inkscape:path-effect
       effect="fillet_chamfer"
       id="path-effect11"
       is_visible="true"
       lpeversion="1"
       nodesatellites_param="F,0,0,1,0,0,0,1 @ F,0,0,1,0,0,0,1 @ F,0,0,1,0,0,0,1 @ F,0,0,1,0,0,0,1"
       radius="0"
       unit="px"
       method="auto"
       mode="F"
       chamfer_steps="1"
       flexible="false"
       use_knot_distance="true"
       apply_no_radius="true"
       apply_with_radius="true"
       only_selected="false"
       hide_knots="false" />
  </defs>
  <g
     inkscape:label="Layer 1"
     inkscape:groupmode="layer"
     id="layer1"
     transform="translate(-617.74792,0.67776)">
    <g
       inkscape:groupmode="layer"
       id="layer2"
       inkscape:label="Level 1" />
    <g
       inkscape:groupmode="layer"
       id="layer3"
       inkscape:label="Level 2" />
    <g
       inkscape:groupmode="layer"
       id="layer4"
       inkscape:label="Level 3" />
    <g
       inkscape:groupmode="layer"
       id="layer5"
       inkscape:label="Level 4" />
    <g
       inkscape:groupmode="layer"
       id="layer6"
       inkscape:label="Level 5" />
    <g
       inkscape:groupmode="layer"
       id="g38"
       inkscape:label="Level 5 copy" />
    <g
       inkscape:groupmode="layer"
       id="layer7"
       inkscape:label="All">
      <path
         style="color:#000000;fill:#00ffff;stroke-width:0.7;stroke-linejoin:round;-inkscape-stroke:none"
         d="m 733.58132,109.82224 c -2.91517,0 -5.3334,2.41823 -5.3334,5.3334 v 24.3332 c 0,2.91518 2.41823,5.3334 5.3334,5.3334 h 24.33321 c 2.91517,0 5.33339,-2.41822 5.33339,-5.3334 v -24.3332 c 0,-2.91517 -2.41822,-5.3334 -5.33339,-5.3334 z m 0,4.58418 h 24.33321 c 0.45492,0 0.74919,0.29431 0.74919,0.74922 v 24.3332 c 0,0.45492 -0.2943,0.74922 -0.74919,0.74922 h -24.33321 c -0.45493,0 -0.74921,-0.2943 -0.74921,-0.74922 v -24.3332 c 0,-0.45491 0.2943,-0.74922 0.74921,-0.74922 z"
         id="rect1-0" />
      <path
         id="rect1-5-2"
         style="color:#000000;fill:#00ffff;stroke-width:0.7;stroke-linejoin:round;-inkscape-stroke:none"
         d="m 989.58132,109.82224 c -2.9152,0 -5.3334,2.41823 -5.3334,5.3334 v 2.8834 c -0.053,-0.002 -0.10509,-0.008 -0.15859,-0.008 h -19.60002 c -2.58741,0 -4.74139,2.15397 -4.74139,4.7414 v 9.1 c 0,2.58742 2.15397,4.7414 4.74139,4.7414 h 19.60002 c 0.053,0 0.1055,-0.006 0.15859,-0.008 v 2.8834 c 0,2.91517 2.4182,5.33341 5.3334,5.33341 h 24.33318 c 2.9152,0 5.3334,-2.41824 5.3334,-5.33341 v -2.8834 c 0.053,0.002 0.105,0.008 0.1585,0.008 h 19.6001 c 2.5874,0 4.7414,-2.15398 4.7414,-4.7414 v -9.1 c 0,-2.58743 -2.154,-4.7414 -4.7414,-4.7414 h -19.6001 c -0.054,0 -0.1053,0.006 -0.1585,0.008 v -2.8834 c 0,-2.91517 -2.4182,-5.3334 -5.3334,-5.3334 z m 0,4.58418 h 24.33318 c 0.4549,0 0.7492,0.2943 0.7492,0.74922 v 7.61659 9.1 7.61661 c 0,0.45491 -0.2943,0.74922 -0.7492,0.74922 h -24.33318 c -0.455,0 -0.74919,-0.29431 -0.74919,-0.74922 v -24.3332 c 0,-0.45492 0.2942,-0.74922 0.74919,-0.74922 z m -25.09202,8.20722 h 19.60002 c 0.1272,0 0.1586,0.0314 0.1586,0.15859 v 9.1 c 0,0.12718 -0.032,0.1586 -0.1586,0.1586 H 964.4893 c -0.12712,0 -0.15722,-0.0314 -0.15722,-0.1586 v -9.1 c 0,-0.12717 0.0301,-0.15859 0.15722,-0.15859 z m 54.9172,0 h 19.6 c 0.1271,0 0.1572,0.0314 0.1572,0.15859 v 9.1 c 0,0.12718 -0.03,0.1586 -0.1572,0.1586 h -19.6 c -0.1272,0 -0.1586,-0.0314 -0.1586,-0.1586 v -9.1 c 0,-0.12717 0.032,-0.15859 0.1586,-0.15859 z" />
      <path
         id="rect1-5-1-3"
         style="color:#000000;fill:#00ffff;stroke-width:0.700015;stroke-linejoin:round;-inkscape-stroke:none"
         d="m 1253.1978,85.322251 c -2.5875,1e-5 -4.7416,2.15399 -4.7416,4.74141 v 19.599989 c 0,0.0534 0.01,0.10553 0.01,0.15859 h -2.8836 c -2.9152,0 -5.3336,2.41823 -5.3336,5.33341 v 2.88339 c -0.053,-0.002 -0.1051,-0.008 -0.1585,-0.008 h -19.6008 c -2.5876,0 -4.7417,2.15398 -4.7417,4.7414 v 9.1 c 0,2.58743 2.1541,4.7414 4.7417,4.7414 h 19.6008 c 0.053,0 0.1054,-0.006 0.1585,-0.008 v 2.88338 c 0,2.91517 2.4184,5.33341 5.3336,5.33341 h 2.8836 c 0,0.0531 -0.01,0.10514 -0.01,0.15859 v 19.6 c 0,2.58742 2.1541,4.74141 4.7416,4.74141 h 9.1003 c 2.5876,0 4.7416,-2.15399 4.7416,-4.74141 v -19.6 c 0,-0.0534 -0.01,-0.10553 -0.01,-0.15859 h 2.8836 c 2.9153,0 5.3337,-2.41824 5.3337,-5.33341 v -2.88338 c 0.053,0.002 0.1051,0.008 0.1585,0.008 h 19.6008 c 2.5876,0 4.7417,-2.15397 4.7417,-4.7414 v -9.1 c 0,-2.58742 -2.1541,-4.7414 -4.7417,-4.7414 h -19.6008 c -0.053,0 -0.1055,0.006 -0.1585,0.008 v -2.88339 c 0,-2.91518 -2.4184,-5.33341 -5.3337,-5.33341 h -2.8836 c 0,-0.0531 0.01,-0.10515 0.01,-0.15859 V 90.063661 c 0,-2.587419 -2.154,-4.74141 -4.7416,-4.74141 z m 0,4.584181 h 9.1003 c 0.1272,0 0.1586,0.03 0.1586,0.157229 v 19.599989 c 0,0.12717 -0.032,0.15859 -0.1586,0.15859 h -9.1003 c -0.1271,0 -0.1586,-0.0314 -0.1586,-0.15859 V 90.063661 c 0,-0.12717 0.032,-0.157229 0.1586,-0.157229 z m -7.617,24.499978 h 24.3343 c 0.455,0 0.7492,0.29431 0.7492,0.74923 v 7.61659 9.1 7.6166 c 0,0.45491 -0.2942,0.74922 -0.7492,0.74922 h -24.3343 c -0.4549,0 -0.7492,-0.29431 -0.7492,-0.74922 v -24.33319 c 0,-0.45492 0.2943,-0.74923 0.7492,-0.74923 z m -25.093,8.20723 h 19.6008 c 0.1272,0 0.1587,0.0314 0.1587,0.15859 v 9.1 c 0,0.12718 -0.032,0.1586 -0.1587,0.1586 h -19.6008 c -0.1271,0 -0.1572,-0.0314 -0.1572,-0.1586 v -9.1 c 0,-0.12717 0.03,-0.15859 0.1572,-0.15859 z m 54.9195,0 h 19.6008 c 0.1272,0 0.1572,0.0314 0.1572,0.15859 v 9.1 c 0,0.12718 -0.03,0.1586 -0.1572,0.1586 h -19.6008 c -0.1272,0 -0.1586,-0.0314 -0.1586,-0.1586 v -9.1 c 0,-0.12717 0.032,-0.15859 0.1586,-0.15859 z m -22.2095,22.20859 h 9.1003 c 0.1272,0 0.1586,0.0314 0.1586,0.15859 v 19.6 c 0,0.12717 -0.032,0.15723 -0.1586,0.15723 h -9.1003 c -0.1271,0 -0.1586,-0.03 -0.1586,-0.15723 v -19.6 c 0,-0.12717 0.032,-0.15859 0.1586,-0.15859 z" />
      <g
         id="g3"
         transform="matrix(0.71186444,0,0,0.71186444,-108.30996,319.7369)">
        <path
           id="path20-7"
           style="color:#000000;fill:#00ffff;stroke-linejoin:round;-inkscape-stroke:none"
           d="m 1193.248,29.322245 c -3.6964,10e-6 -6.7735,3.07713 -6.7735,6.77344 v 28 c 0,0.0763 0.01,0.15076 0.012,0.22656 h -4.1191 c -4.1646,0 -7.6192,3.45462 -7.6192,7.61915 v 4.11914 c -0.076,-0.003 -0.1502,-0.0117 -0.2265,-0.0117 h -28 c -3.6964,0 -6.7735,3.077107 -6.7735,6.773427 v 13 c 0,3.69632 3.0771,6.773438 6.7735,6.773438 h 28 c 0.076,0 0.1507,-0.009 0.2265,-0.0117 v 4.11914 c 0,4.16453 3.4546,7.61915 7.6192,7.61915 h 4.1191 c 0,0.0758 -0.012,0.15021 -0.012,0.22656 v 28 c 0,3.69632 3.0771,6.77344 6.7735,6.77344 h 13 c 3.6963,0 6.7734,-3.07712 6.7734,-6.77344 v -28 c 0,-0.0763 -0.01,-0.15076 -0.012,-0.22656 h 4.1191 c 4.1646,0 7.6192,-3.45462 7.6192,-7.61915 V 102.584 c 0.076,0.003 0.1502,0.0117 0.2265,0.0117 h 28 c 3.6964,0 6.7735,-3.077118 6.7735,-6.773438 v -13 c 0,-3.69632 -3.0771,-6.773427 -6.7735,-6.773427 h -28 c -0.076,0 -0.1507,0.009 -0.2265,0.0117 v -4.11914 c 0,-4.16453 -3.4546,-7.61915 -7.6192,-7.61915 h -4.1191 c 0,-0.0758 0.012,-0.15021 0.012,-0.22656 v -28 c 0,-3.69631 -3.0771,-6.77344 -6.7734,-6.77344 z m 0,6.54883 h 13 c 0.1816,0 0.2265,0.0429 0.2265,0.22461 v 28 c 0,0.18167 -0.045,0.22656 -0.2265,0.22656 h -13 c -0.1817,0 -0.2266,-0.0449 -0.2266,-0.22656 v -28 c 0,-0.18167 0.045,-0.22461 0.2266,-0.22461 z m -10.8809,35 h 34.7617 c 0.6499,0 1.0703,0.42044 1.0703,1.07032 v 10.880847 13 10.880858 c 0,0.64988 -0.4204,1.07032 -1.0703,1.07032 h -34.7617 c -0.6499,0 -1.0703,-0.42044 -1.0703,-1.07032 V 71.941395 c 0,-0.64988 0.4204,-1.07032 1.0703,-1.07032 z m -35.8457,11.724607 h 28 c 0.1817,0 0.2266,0.0449 0.2266,0.22656 v 13 c 0,0.18168 -0.045,0.22657 -0.2266,0.22657 h -28 c -0.1817,0 -0.2246,-0.0449 -0.2246,-0.22657 v -13 c 0,-0.18167 0.043,-0.22656 0.2246,-0.22656 z m 78.4531,0 h 28 c 0.1817,0 0.2246,0.0449 0.2246,0.22656 v 13 c 0,0.18168 -0.043,0.22657 -0.2246,0.22657 h -28 c -0.1817,0 -0.2265,-0.0449 -0.2265,-0.22657 v -13 c 0,-0.18167 0.045,-0.22656 0.2265,-0.22656 z m -31.7265,31.726568 h 13 c 0.1816,0 0.2265,0.0449 0.2265,0.22656 v 28 c 0,0.18167 -0.045,0.22461 -0.2265,0.22461 h -13 c -0.1817,0 -0.2266,-0.0429 -0.2266,-0.22461 v -28 c 0,-0.18167 0.045,-0.22656 0.2266,-0.22656 z" />
        <path
           style="color:#000000;fill:#00ffff;stroke-linejoin:round;-inkscape-stroke:none"
           d="m 1199.7481,28.822301 c -33.3718,0 -60.5,27.128262 -60.5,60.500001 0,33.371728 27.1282,60.499998 60.5,60.499998 33.3717,0 60.5,-27.12827 60.5,-60.499998 0,-33.371739 -27.1283,-60.500001 -60.5,-60.500001 z m 0,7 c 29.5886,0 53.5,23.911339 53.5,53.500001 0,29.588658 -23.9114,53.499998 -53.5,53.499998 -29.5887,0 -53.5,-23.91134 -53.5,-53.499998 0,-29.588662 23.9113,-53.500001 53.5,-53.500001 z"
           id="path21-5" />
        <circle
           style="fill:none;stroke:#00ffff;stroke-width:7;stroke-linejoin:round;stroke-dasharray:none;paint-order:normal"
           id="circle21-9"
           cx="1199.7479"
           cy="89.322258"
           r="85" />
      </g>
      <g
         id="g1"
         transform="matrix(0.7,0,0,0.7,476.22438,131.79666)">
        <path
           id="path20-1-2"
           style="color:#000000;fill:#00ffff;stroke-linejoin:round;-inkscape-stroke:none"
           d="m 744.24779,299.32221 c -3.69631,1e-5 -6.77345,3.07713 -6.77344,6.77344 v 28 c 0,0.0763 0.009,0.15076 0.0117,0.22656 h -4.11914 c -4.16453,0 -7.61914,3.45462 -7.61914,7.61915 v 4.11914 c -0.0758,-0.003 -0.15021,-0.0117 -0.22656,-0.0117 h -28 c -3.69632,0 -6.77344,3.07711 -6.77344,6.77343 v 13 c 0,3.69632 3.07712,6.77344 6.77344,6.77344 h 28 c 0.0763,0 0.15076,-0.009 0.22656,-0.0117 v 4.11914 c 0,4.16453 3.45461,7.61915 7.61914,7.61915 h 4.11914 c -0.003,0.0758 -0.0117,0.15021 -0.0117,0.22656 v 28 c 0,3.69632 3.07713,6.77344 6.77344,6.77344 h 13 c 3.69633,0 6.77345,-3.07712 6.77344,-6.77344 v -28 c 0,-0.0763 -0.009,-0.15076 -0.0117,-0.22656 h 4.11914 c 4.16453,0 7.61914,-3.45462 7.61914,-7.61915 v -4.11914 c 0.0758,0.003 0.15021,0.0117 0.22656,0.0117 h 28 c 3.69633,0 6.77344,-3.07712 6.77344,-6.77344 v -13 c 0,-3.69632 -3.07711,-6.77343 -6.77344,-6.77343 h -28 c -0.0763,0 -0.15076,0.009 -0.22656,0.0117 v -4.11914 c 0,-4.16453 -3.45461,-7.61915 -7.61914,-7.61915 h -4.11914 c 0.003,-0.0758 0.0117,-0.15021 0.0117,-0.22656 v -28 c 0,-3.69631 -3.07712,-6.77344 -6.77344,-6.77344 z m 0,6.54883 h 13 c 0.18167,0 0.22656,0.0429 0.22656,0.22461 v 28 c 0,0.18167 -0.0449,0.22656 -0.22656,0.22656 h -13 c -0.18168,0 -0.22656,-0.0449 -0.22656,-0.22656 v -28 c 0,-0.18167 0.0449,-0.22461 0.22656,-0.22461 z m -10.88086,35 h 34.76172 c 0.64988,0 1.07031,0.42044 1.07031,1.07032 v 10.88085 13 10.88086 c 0,0.64988 -0.42043,1.07032 -1.07031,1.07032 h -34.76172 c -0.64988,0 -1.07031,-0.42044 -1.07031,-1.07032 v -34.76171 c 0,-0.64988 0.42043,-1.07032 1.07031,-1.07032 z m -35.8457,11.72461 h 28 c 0.18167,0 0.22656,0.0449 0.22656,0.22656 v 13 c 0,0.18168 -0.0449,0.22657 -0.22656,0.22657 h -28 c -0.18167,0 -0.22461,-0.0449 -0.22461,-0.22657 v -13 c 0,-0.18167 0.0429,-0.22656 0.22461,-0.22656 z m 78.45312,0 h 28 c 0.18167,0 0.22461,0.0449 0.22461,0.22656 v 13 c 0,0.18168 -0.0429,0.22657 -0.22461,0.22657 h -28 c -0.18167,0 -0.22656,-0.0449 -0.22656,-0.22657 v -13 c 0,-0.18167 0.0449,-0.22656 0.22656,-0.22656 z m -31.72656,31.72657 h 13 c 0.18167,0 0.22656,0.0449 0.22656,0.22656 v 28 c 0,0.18167 -0.0449,0.22461 -0.22656,0.22461 h -13 c -0.18168,0 -0.22656,-0.0429 -0.22656,-0.22461 v -28 c 0,-0.18167 0.0449,-0.22656 0.22656,-0.22656 z" />
        <path
           style="color:#000000;fill:#00ffff;stroke-linejoin:round;-inkscape-stroke:none"
           d="m 750.74792,298.82226 c -33.37174,0 -60.5,27.12827 -60.5,60.5 0,33.37174 27.12826,60.50001 60.5,60.50001 33.37173,0 60.5,-27.12827 60.5,-60.50001 0,-33.37173 -27.12827,-60.5 -60.5,-60.5 z m 0,7 c 29.58866,0 53.5,23.91134 53.5,53.5 0,29.58867 -23.91134,53.50001 -53.5,53.50001 -29.58866,0 -53.5,-23.91134 -53.5,-53.50001 0,-29.58866 23.91134,-53.5 53.5,-53.5 z"
           id="path21-8-2" />
        <path
           style="color:#000000;fill:#00ffff;stroke-linejoin:round;-inkscape-stroke:none"
           d="m 750.74805,270.8223 c -48.8357,0 -88.5,39.6643 -88.5,88.5 0,48.83569 39.6643,88.5 88.5,88.5 48.83569,0 88.5,-39.66431 88.5,-88.5 0,-48.8357 -39.66431,-88.5 -88.5,-88.5 z m 0,7 c 45.05261,0 81.5,36.44738 81.5,81.5 0,45.05261 -36.44739,81.5 -81.5,81.5 -45.05262,0 -81.5,-36.44739 -81.5,-81.5 0,-45.05262 36.44738,-81.5 81.5,-81.5 z"
           id="circle21-7-8" />
        <path
           style="color:#000000;fill:#00ffff;stroke-linejoin:round;-inkscape-stroke:none"
           d="m 829.24792,318.3223 a 3.50035,3.50035 0 0 0 -3.5,3.5 v 75 a 3.50035,3.50035 0 0 0 3.5,3.5 h 90 a 3.50035,3.50035 0 0 0 3.5,-3.5 v -75 a 3.50035,3.50035 0 0 0 -3.5,-3.5 z m 3.5,7 h 83 v 68 h -83 z"
           id="rect30-9" />
        <path
           style="color:#000000;fill:#00ffff;stroke-linejoin:round;-inkscape-stroke:none"
           d="m 582.24792,318.3223 a 3.50035,3.50035 0 0 0 -3.5,3.5 v 75 a 3.50035,3.50035 0 0 0 3.5,3.5 h 90 a 3.50035,3.50035 0 0 0 3.5,-3.5 v -75 a 3.50035,3.50035 0 0 0 -3.5,-3.5 z m 3.5,7 h 83 v 68 h -83 z"
           id="path33-7" />
      </g>
      <g
         id="g2"
         transform="matrix(0.7,0,0,0.7,480.22436,131.19661)">
        <path
           id="path34-3"
           style="color:#000000;fill:#00ffff;stroke-linejoin:round;-inkscape-stroke:none"
           d="m 1104.248,299.32224 c -3.6964,10e-6 -6.7735,3.07713 -6.7735,6.77344 v 28 c 0,0.0763 0.01,0.15076 0.012,0.22656 h -4.1191 c -4.1646,0 -7.6192,3.45462 -7.6192,7.61915 v 4.11914 c -0.076,-0.003 -0.1502,-0.0117 -0.2265,-0.0117 h -28 c -3.6964,0 -6.7735,3.07711 -6.7735,6.77343 v 13 c 0,3.69632 3.0771,6.77344 6.7735,6.77344 h 28 c 0.076,0 0.1507,-0.009 0.2265,-0.0117 v 4.11914 c 0,4.16453 3.4546,7.61915 7.6192,7.61915 h 4.1191 c 0,0.0758 -0.012,0.15021 -0.012,0.22656 v 28 c 0,3.69632 3.0771,6.77344 6.7735,6.77344 h 13 c 3.6963,0 6.7734,-3.07712 6.7734,-6.77344 v -28 c 0,-0.0763 -0.01,-0.15076 -0.012,-0.22656 h 4.1191 c 4.1646,0 7.6192,-3.45462 7.6192,-7.61915 V 372.584 c 0.076,0.003 0.1502,0.0117 0.2265,0.0117 h 28 c 3.6964,0 6.7735,-3.07712 6.7735,-6.77344 v -13 c 0,-3.69632 -3.0771,-6.77343 -6.7735,-6.77343 h -28 c -0.076,0 -0.1507,0.009 -0.2265,0.0117 v -4.11914 c 0,-4.16453 -3.4546,-7.61915 -7.6192,-7.61915 h -4.1191 c 0,-0.0758 0.012,-0.15021 0.012,-0.22656 v -28 c 0,-3.69631 -3.0771,-6.77344 -6.7734,-6.77344 z m 0,6.54883 h 13 c 0.1816,0 0.2265,0.0429 0.2265,0.22461 v 28 c 0,0.18167 -0.045,0.22656 -0.2265,0.22656 h -13 c -0.1817,0 -0.2266,-0.0449 -0.2266,-0.22656 v -28 c 0,-0.18167 0.045,-0.22461 0.2266,-0.22461 z m -10.8809,35 h 34.7617 c 0.6499,0 1.0703,0.42044 1.0703,1.07032 v 10.88085 13 10.88086 c 0,0.64988 -0.4204,1.07032 -1.0703,1.07032 h -34.7617 c -0.6499,0 -1.0703,-0.42044 -1.0703,-1.07032 v -34.76171 c 0,-0.64988 0.4204,-1.07032 1.0703,-1.07032 z m -35.8457,11.72461 h 28 c 0.1817,0 0.2266,0.0449 0.2266,0.22656 v 13 c 0,0.18168 -0.045,0.22657 -0.2266,0.22657 h -28 c -0.1817,0 -0.2246,-0.0449 -0.2246,-0.22657 v -13 c 0,-0.18167 0.043,-0.22656 0.2246,-0.22656 z m 78.4531,0 h 28 c 0.1817,0 0.2246,0.0449 0.2246,0.22656 v 13 c 0,0.18168 -0.043,0.22657 -0.2246,0.22657 h -28 c -0.1817,0 -0.2265,-0.0449 -0.2265,-0.22657 v -13 c 0,-0.18167 0.045,-0.22656 0.2265,-0.22656 z m -31.7265,31.72657 h 13 c 0.1816,0 0.2265,0.0449 0.2265,0.22656 v 28 c 0,0.18167 -0.045,0.22461 -0.2265,0.22461 h -13 c -0.1817,0 -0.2266,-0.0429 -0.2266,-0.22461 v -28 c 0,-0.18167 0.045,-0.22656 0.2266,-0.22656 z" />
        <path
           style="color:#000000;fill:#00ffff;stroke-linejoin:round;-inkscape-stroke:none"
           d="m 1110.7481,298.82229 c -33.3718,0 -60.5,27.12827 -60.5,60.5 0,33.37174 27.1282,60.50001 60.5,60.50001 33.3717,0 60.5,-27.12827 60.5,-60.50001 0,-33.37173 -27.1283,-60.5 -60.5,-60.5 z m 0,7 c 29.5886,0 53.5,23.91134 53.5,53.5 0,29.58867 -23.9114,53.50001 -53.5,53.50001 -29.5887,0 -53.5,-23.91134 -53.5,-53.50001 0,-29.58866 23.9113,-53.5 53.5,-53.5 z"
           id="path35-6" />
        <path
           style="color:#000000;fill:#00ffff;stroke-linejoin:round;-inkscape-stroke:none"
           d="m 1110.7482,270.82233 c -48.8357,0 -88.5,39.6643 -88.5,88.5 0,48.83569 39.6643,88.5 88.5,88.5 48.8357,0 88.5,-39.66431 88.5,-88.5 0,-48.8357 -39.6643,-88.5 -88.5,-88.5 z m 0,7 c 45.0526,0 81.5,36.44738 81.5,81.5 0,45.05261 -36.4474,81.5 -81.5,81.5 -45.0526,0 -81.5,-36.44739 -81.5,-81.5 0,-45.05262 36.4474,-81.5 81.5,-81.5 z"
           id="path36-1" />
        <path
           style="color:#000000;fill:#00ffff;stroke-linejoin:round;-inkscape-stroke:none"
           d="m 1189.2481,318.32233 a 3.50035,3.50035 0 0 0 -3.5,3.5 v 75 a 3.50035,3.50035 0 0 0 3.5,3.5 h 90 a 3.50035,3.50035 0 0 0 3.4999,-3.5 v -75 a 3.50035,3.50035 0 0 0 -3.4999,-3.5 z m 3.5,7 h 83 v 68 h -83 z"
           id="path37-2" />
        <path
           style="color:#000000;fill:#00ffff;stroke-linejoin:round;-inkscape-stroke:none"
           d="m 942.24805,318.32233 a 3.50035,3.50035 0 0 0 -3.5,3.5 v 75 a 3.50035,3.50035 0 0 0 3.5,3.5 h 90.00005 a 3.50035,3.50035 0 0 0 3.5,-3.5 v -75 a 3.50035,3.50035 0 0 0 -3.5,-3.5 z m 3.5,7 h 83.00005 v 68 h -83.00005 z"
           id="path38-9" />
        <path
           style="color:#000000;fill:#00ffff;stroke-linejoin:round;-inkscape-stroke:none"
           d="m 1151.7481,437.82233 a 3.50035,3.50035 0 0 0 -3.5,-3.5 h -75 a 3.50035,3.50035 0 0 0 -3.5,3.5 v 90 a 3.50035,3.50035 0 0 0 3.5,3.5 h 75 a 3.50035,3.50035 0 0 0 3.5,-3.5 z m -7,3.5 v 83 h -68 v -83 z"
           id="path39-3" />
        <path
           style="color:#000000;fill:#00ffff;stroke-linejoin:round;-inkscape-stroke:none"
           d="m 1151.7481,190.82233 a 3.50035,3.50035 0 0 0 -3.5,-3.5 h -75 a 3.50035,3.50035 0 0 0 -3.5,3.5 v 90 a 3.50035,3.50035 0 0 0 3.5,3.5 h 75 a 3.50035,3.50035 0 0 0 3.5,-3.5 z m -7,3.5 v 83 h -68 v -83 z"
           id="path40-1" />
      </g>
    </g>
  </g>
</svg>
